<?xml version="1.0" encoding="UTF-8" standalone="no"?>
<!DOCTYPE svg PUBLIC "-//W3C//DTD SVG 1.1//EN" "http://www.w3.org/Graphics/SVG/1.1/DTD/svg11.dtd">
<svg width="3395px" height="241px" version="1.1" xmlns="http://www.w3.org/2000/svg" xmlns:xlink="http://www.w3.org/1999/xlink" xml:space="preserve" xmlns:serif="http://www.serif.com/" style="fill-rule:evenodd;clip-rule:evenodd;stroke-linejoin:round;stroke-miterlimit:2;">
    <g>
        <g id="Alpha-2" serif:id="Alpha 2">
            <path d="M1322.836,68.559l-56.531,171.998l-56.531,0l79.384,-240.557l33.678,0" style="fill:rgb(116,117,114);"/>
            <path d="M1322.836,68.559l56.531,171.998l56.531,0l-79.384,-240.557l-33.678,0" style="fill:rgb(116,117,114);"/>
        </g>
        <g id="Alpha-1" serif:id="Alpha 1">
            <path d="M3280.968,68.559l-56.531,171.998l-56.531,0l79.384,-240.557l33.678,0" style="fill:rgb(116,117,114);"/>
            <path d="M3280.968,68.559l56.531,171.998l56.531,0l-79.384,-240.557l-33.678,0" style="fill:rgb(116,117,114);"/>
        </g>
        <path id="Lambda" d="M1494.834,0l0,240.557l168.39,0l0,-40.895l-114.264,0l0,-199.662l-54.125,0Z" style="fill:rgb(116,117,114);"/>
        <path d="M441.196,200.865l0,39.692l-165.984,0l0,-240.557l165.984,0l0,42.097l-115.467,0l0,56.531l98.628,0l0,43.3l-98.628,0l0,57.734l115.467,1.203Z" style="fill:rgb(116,117,114);"/>
        <path d="M516.971,240.557l0,-238.151l46.909,0l92.614,144.334l0,-144.334l51.72,0l0,238.151l-51.72,0l-90.209,-131.103l0,131.103l-49.314,0Z" style="fill:rgb(116,117,114);"/>
        <path d="M769.556,2.406l348.807,0c0,0 32.067,2.433 32.067,32.067l0,93.023c0,0 5.219,24.056 -29.69,29.69l29.69,83.371l-56.123,0l-34.881,-76.978l-38.489,0l0,76.978l-54.125,0l0,-197.257l-73.37,0l0,197.257l-52.922,0l0,-196.054l-70.964,0l0,-42.097Zm250.179,44.503l0,66.153l78.181,0l0,-66.153l-78.181,0Z" style="fill:rgb(116,117,114);"/>
        <path d="M769.556,2.406l348.807,0c0,0 32.067,2.433 32.067,32.067l0,93.023c0,0 5.219,24.056 -29.69,29.69l29.69,83.371l-56.123,0l-34.881,-76.978l-38.489,0l0,76.978l-54.125,0l0,-197.257l-73.37,0l0,197.257l-52.922,0l0,-196.054l-70.964,0l0,-42.097Zm250.179,44.503l0,66.153l78.181,0l0,-66.153l-78.181,0Z" style="fill:rgb(116,117,114);"/>
        <path d="M769.556,2.406l348.807,0c0,0 32.067,2.433 32.067,32.067l0,93.023c0,0 -0.795,29.69 -29.69,29.69l29.69,83.371l-56.123,0l-34.881,-76.978l-38.489,0l0,76.978l-54.125,0l0,-197.257l-73.37,0l0,197.257l-52.922,0l0,-196.054l-70.964,0l0,-42.097Zm250.179,44.503l0,66.153l78.181,0l0,-66.153l-78.181,0Z" style="fill:rgb(116,117,114);"/>
        <path d="M192.22,79.985l0,-46.307c0.939,-37.361 -32.605,-32.605 -32.605,-32.605l-126.162,0c-34.68,0.064 -33.447,33.447 -33.447,33.447l0,171.157c-0.029,34.428 35.123,35.123 35.123,35.123l123.413,0c33.678,-0.726 33.384,-33.384 33.384,-33.384l0,-49.85l-50.223,0l0,40.895l-91.412,0l0,-151.551l90.209,0l0,33.077l51.72,0Z" style="fill:rgb(116,117,114);"/>
        <path d="M2887.658,240.799l0,-238.393l49.314,0l60.139,110.656l61.342,-110.656l49.314,0l0,238.393l-49.314,0l0,-127.737l-60.741,92.614l-55.929,-92.614l0,127.737l-54.125,0Z" style="fill:rgb(116,117,114);"/>
        <path d="M2066.157,98.599l0,-97.722l159.97,0c29.81,-0.017 29.632,29.632 29.632,29.632l0,182.383c0.177,28.541 -28.107,28.107 -28.107,28.107l-161.496,0l0,-85.841l48.111,0l0,44.503l89.006,0l0,-152.754l-86.6,0l0,51.72l-50.517,-0.029Z" style="fill:rgb(116,117,114);"/>
        <path d="M2340.391,208.082l0,-174.404c-0.559,-29.214 30.242,-30.242 30.242,-30.242l126.12,0c31.843,0.626 31.791,31.791 31.791,31.791l0,172.854c-0.35,28.12 -28.635,28.635 -28.635,28.635l-133.057,0c-26.217,-0.113 -26.461,-28.635 -26.461,-28.635Zm49.314,-12.028l86.6,0l0,-149.145l-86.6,0l0,149.145Z" style="fill:rgb(116,117,114);"/>
        <path d="M2752.946,152.754l-48.111,0l0,-39.692l99.831,0l0,123.655l-43.3,0l0,-3.376l-12.028,0l0,3.376l-105.845,0c-31.995,-0.806 -31.045,-31.045 -31.045,-31.045l0,-168.385c0.656,-33.677 34.529,-34.529 34.529,-34.529l121.605,0c34.411,0.531 34.888,34.888 34.888,34.888l0,36.928l-45.713,0l0,-27.664l-95.02,0l0,151.551l90.209,0l0,-45.706Z" style="fill:rgb(116,117,114);"/>
    </g>
</svg>
